<svg width="78" height="78" viewBox="0 0 78 78" fill="none" xmlns="http://www.w3.org/2000/svg">
<path d="M76.472 72.3142C77.6202 73.4624 77.6202 75.324 76.472 76.4722C75.3238 77.6204 73.4621 77.6204 72.3139 76.4722L58.2011 62.3594C57.0529 61.2112 57.0529 59.3496 58.2011 58.2014C59.3493 57.0531 61.2109 57.0531 62.3591 58.2014L76.472 72.3142ZM32.0545 63.2205C14.8421 63.2205 0.888672 49.2671 0.888672 32.0547C0.888672 14.8423 14.8421 0.888916 32.0545 0.888916C49.2669 0.888916 63.2203 14.8423 63.2203 32.0547C63.2203 49.2671 49.2669 63.2205 32.0545 63.2205ZM32.0545 57.3402C46.0193 57.3402 57.3399 46.0195 57.3399 32.0547C57.3399 18.09 46.0193 6.76926 32.0545 6.76926C18.0897 6.76926 6.76901 18.09 6.76901 32.0547C6.76901 46.0195 18.0897 57.3402 32.0545 57.3402ZM17.5496 29.7026C17.5496 30.7851 16.6721 31.6627 15.5895 31.6627C14.507 31.6627 13.6294 30.7851 13.6294 29.7026C13.6294 20.8258 20.8255 13.6297 29.7023 13.6297C30.7849 13.6297 31.6625 14.5072 31.6625 15.5898C31.6625 16.6723 30.7849 17.5499 29.7023 17.5499C22.9906 17.5499 17.5496 22.9908 17.5496 29.7026Z" fill="#A87E40"/>
</svg>
