<svg width="46" height="46" viewBox="0 0 46 46" fill="none" xmlns="http://www.w3.org/2000/svg">
<circle cx="23" cy="23" r="21.5" stroke="white" stroke-width="3"/>
<path fill-rule="evenodd" clip-rule="evenodd" d="M31.7356 26.8549C31.1473 26.5664 28.5002 25.2682 28.059 25.124C27.6179 24.9797 27.1767 24.8355 26.8826 25.4125C26.5884 25.9894 25.4119 27.1434 25.1178 27.4319C24.8237 27.7204 24.5296 27.8647 23.9413 27.5762C23.3531 27.2877 21.5884 26.7107 19.5295 24.9797C17.9119 23.5372 16.8824 21.8063 16.5883 21.3735C16.2942 20.7965 16.5883 20.508 16.8824 20.3638C17.1766 20.0753 17.4707 19.7868 17.7648 19.4983C17.7648 19.354 17.9119 19.354 17.9119 19.2098C18.0589 19.0655 18.0589 18.777 18.206 18.6328C18.353 18.3443 18.353 17.9116 18.206 17.7673C18.0589 17.6231 17.0295 14.8823 16.5883 13.8726C16.1471 12.8629 15.7059 13.0071 15.4118 13.0071C15.1177 13.0071 14.6765 13.0071 14.3824 13.0071C14.0883 13.0071 13.5 13.1514 12.9118 13.7284C12.4706 14.3054 11 15.6036 11 18.2001C11 18.777 11.1471 19.354 11.2941 19.931C11.8824 21.8063 13.0589 23.2487 13.2059 23.5372C13.5 23.8257 16.8824 29.4514 22.4707 31.4709C28.059 33.6346 28.059 32.9134 28.9414 32.7691C29.9708 32.6249 32.1767 31.4709 32.6179 30.3169C33.0591 29.0187 33.0591 28.0089 32.912 27.8647C32.6179 27.2877 32.3238 27.1434 31.7356 26.8549Z" fill="white"/>
</svg>
