<svg width="220" height="36" viewBox="0 0 220 36" fill="none" xmlns="http://www.w3.org/2000/svg">
<rect width="59" height="36" fill="white"/>
<path d="M11.016 27C10.8427 27 10.704 26.948 10.6 26.844C10.496 26.74 10.444 26.6013 10.444 26.428V9.398C10.444 9.22467 10.496 9.086 10.6 8.982C10.704 8.86067 10.8427 8.8 11.016 8.8H21.156C21.3467 8.8 21.494 8.852 21.598 8.956C21.702 9.06 21.754 9.20733 21.754 9.398V9.788C21.754 9.96133 21.6933 10.1 21.572 10.204C21.468 10.308 21.3293 10.36 21.156 10.36H12.082V16.99H20.584C20.7747 16.99 20.922 17.042 21.026 17.146C21.13 17.25 21.182 17.3973 21.182 17.588V17.978C21.182 18.1513 21.1213 18.29 21 18.394C20.896 18.498 20.7573 18.55 20.584 18.55H12.082V25.44H21.364C21.5547 25.44 21.702 25.492 21.806 25.596C21.91 25.7 21.962 25.8473 21.962 26.038V26.428C21.962 26.6013 21.9013 26.74 21.78 26.844C21.676 26.948 21.5373 27 21.364 27H11.016ZM35.0867 27C34.9481 27 34.8267 26.948 34.7227 26.844C34.6187 26.74 34.5667 26.6187 34.5667 26.48C34.5667 26.3587 34.6014 26.246 34.6707 26.142L40.7287 17.744L34.9047 9.658C34.8354 9.554 34.8007 9.44133 34.8007 9.32C34.8007 9.18133 34.8527 9.06 34.9567 8.956C35.0607 8.852 35.1821 8.8 35.3207 8.8H35.9447C36.1701 8.8 36.3694 8.93 36.5427 9.19L41.7687 16.47L46.8907 9.19C47.0814 8.93 47.2807 8.8 47.4887 8.8H48.0607C48.1994 8.8 48.3207 8.852 48.4247 8.956C48.5287 9.06 48.5807 9.18133 48.5807 9.32C48.5807 9.44133 48.5461 9.554 48.4767 9.658L42.7307 17.796L48.7627 26.142C48.8321 26.246 48.8667 26.3587 48.8667 26.48C48.8667 26.6187 48.8147 26.74 48.7107 26.844C48.6067 26.948 48.4854 27 48.3467 27H47.7227C47.5147 27 47.3154 26.87 47.1247 26.61L41.6907 19.096L36.2567 26.61C36.0834 26.87 35.8841 27 35.6587 27H35.0867Z" fill="#202020"/>
<path d="M70.496 19.954C70.3227 19.954 70.184 19.902 70.08 19.798C69.976 19.694 69.924 19.5553 69.924 19.382V19.018C69.924 18.8447 69.976 18.706 70.08 18.602C70.184 18.498 70.3227 18.446 70.496 18.446H80.506C80.6793 18.446 80.818 18.498 80.922 18.602C81.026 18.706 81.078 18.8447 81.078 19.018V19.382C81.078 19.5553 81.026 19.694 80.922 19.798C80.818 19.902 80.6793 19.954 80.506 19.954H70.496ZM96.1933 27C96.02 27 95.8813 26.948 95.7773 26.844C95.6733 26.74 95.6213 26.6013 95.6213 26.428V9.398C95.6213 9.22467 95.6733 9.086 95.7773 8.982C95.8813 8.86067 96.02 8.8 96.1933 8.8H101.731C103.534 8.8 104.955 9.06867 105.995 9.606C107.053 10.126 107.798 10.8973 108.231 11.92C108.682 12.9427 108.925 14.2427 108.959 15.82C108.977 16.34 108.985 17.0247 108.985 17.874C108.985 18.7407 108.977 19.434 108.959 19.954C108.925 21.618 108.682 22.9613 108.231 23.984C107.798 24.9893 107.07 25.7433 106.047 26.246C105.025 26.7487 103.629 27 101.861 27H96.1933ZM101.731 25.44C103.118 25.44 104.21 25.258 105.007 24.894C105.805 24.5127 106.377 23.9233 106.723 23.126C107.087 22.3113 107.287 21.2107 107.321 19.824C107.339 19.304 107.347 18.654 107.347 17.874C107.347 17.1113 107.339 16.47 107.321 15.95C107.287 14.0087 106.827 12.596 105.943 11.712C105.077 10.8107 103.629 10.36 101.601 10.36H97.2593V25.44H101.731ZM129.779 27.26C125.324 27.26 123.036 24.868 122.915 20.084C122.898 19.564 122.889 18.836 122.889 17.9C122.889 16.964 122.898 16.236 122.915 15.716C122.984 13.3587 123.626 11.5733 124.839 10.36C126.052 9.14667 127.699 8.54 129.779 8.54C131.859 8.54 133.506 9.14667 134.719 10.36C135.932 11.5733 136.574 13.3587 136.643 15.716C136.678 16.756 136.695 17.484 136.695 17.9C136.695 18.316 136.678 19.044 136.643 20.084C136.522 24.868 134.234 27.26 129.779 27.26ZM129.779 25.7C131.339 25.7 132.578 25.232 133.497 24.296C134.433 23.3427 134.936 21.8953 135.005 19.954C135.04 18.914 135.057 18.2293 135.057 17.9C135.057 17.5707 135.04 16.886 135.005 15.846C134.936 13.9047 134.433 12.466 133.497 11.53C132.561 10.5767 131.322 10.1 129.779 10.1C128.236 10.1 126.997 10.5767 126.061 11.53C125.125 12.466 124.622 13.9047 124.553 15.846C124.536 16.366 124.527 17.0507 124.527 17.9C124.527 18.7493 124.536 19.434 124.553 19.954C124.622 21.8953 125.116 23.3427 126.035 24.296C126.971 25.232 128.219 25.7 129.779 25.7ZM157.394 27.26C152.939 27.26 150.651 24.868 150.53 20.084C150.513 19.564 150.504 18.836 150.504 17.9C150.504 16.964 150.513 16.236 150.53 15.716C150.599 13.3587 151.241 11.5733 152.454 10.36C153.667 9.14667 155.314 8.54 157.394 8.54C159.474 8.54 161.121 9.14667 162.334 10.36C163.547 11.5733 164.189 13.3587 164.258 15.716C164.293 16.756 164.31 17.484 164.31 17.9C164.31 18.316 164.293 19.044 164.258 20.084C164.137 24.868 161.849 27.26 157.394 27.26ZM157.394 25.7C158.954 25.7 160.193 25.232 161.112 24.296C162.048 23.3427 162.551 21.8953 162.62 19.954C162.655 18.914 162.672 18.2293 162.672 17.9C162.672 17.5707 162.655 16.886 162.62 15.846C162.551 13.9047 162.048 12.466 161.112 11.53C160.176 10.5767 158.937 10.1 157.394 10.1C155.851 10.1 154.612 10.5767 153.676 11.53C152.74 12.466 152.237 13.9047 152.168 15.846C152.151 16.366 152.142 17.0507 152.142 17.9C152.142 18.7493 152.151 19.434 152.168 19.954C152.237 21.8953 152.731 23.3427 153.65 24.296C154.586 25.232 155.834 25.7 157.394 25.7ZM179.419 27C179.245 27 179.107 26.948 179.003 26.844C178.899 26.74 178.847 26.6013 178.847 26.428V9.398C178.847 9.22467 178.899 9.086 179.003 8.982C179.107 8.86067 179.245 8.8 179.419 8.8H185.477C187.349 8.8 188.813 9.242 189.871 10.126C190.928 11.01 191.457 12.3187 191.457 14.052C191.457 15.4213 191.119 16.5307 190.443 17.38C189.767 18.212 188.796 18.7753 187.531 19.07L191.717 26.194C191.769 26.298 191.795 26.3933 191.795 26.48C191.795 26.6187 191.743 26.74 191.639 26.844C191.535 26.948 191.413 27 191.275 27H190.963C190.703 27 190.503 26.948 190.365 26.844C190.243 26.7227 190.113 26.5407 189.975 26.298L185.841 19.304H180.485V26.428C180.485 26.6013 180.424 26.74 180.303 26.844C180.199 26.948 180.06 27 179.887 27H179.419ZM185.347 17.744C186.855 17.744 187.973 17.4407 188.701 16.834C189.446 16.21 189.819 15.2827 189.819 14.052C189.819 12.8213 189.446 11.9027 188.701 11.296C187.973 10.672 186.855 10.36 185.347 10.36H180.485V17.744H185.347ZM211.338 27.26C209.986 27.26 208.807 27.0433 207.802 26.61C206.814 26.1593 206.051 25.5787 205.514 24.868C204.994 24.1573 204.716 23.3947 204.682 22.58C204.682 22.4413 204.734 22.32 204.838 22.216C204.942 22.112 205.072 22.06 205.228 22.06H205.748C206.06 22.06 206.25 22.2333 206.32 22.58C206.441 23.412 206.918 24.14 207.75 24.764C208.582 25.388 209.778 25.7 211.338 25.7C212.984 25.7 214.206 25.4053 215.004 24.816C215.818 24.2093 216.226 23.3687 216.226 22.294C216.226 21.6353 216.026 21.098 215.628 20.682C215.246 20.2487 214.683 19.876 213.938 19.564C213.192 19.2347 212.066 18.8273 210.558 18.342C209.223 17.9087 208.174 17.484 207.412 17.068C206.666 16.652 206.112 16.1407 205.748 15.534C205.384 14.9273 205.202 14.156 205.202 13.22C205.202 12.336 205.436 11.5387 205.904 10.828C206.389 10.1173 207.082 9.56267 207.984 9.164C208.885 8.748 209.96 8.54 211.208 8.54C212.49 8.54 213.591 8.774 214.51 9.242C215.428 9.69267 216.122 10.2733 216.59 10.984C217.058 11.6773 217.309 12.3793 217.344 13.09C217.344 13.2287 217.292 13.35 217.188 13.454C217.101 13.558 216.971 13.61 216.798 13.61H216.278C216.156 13.61 216.035 13.5753 215.914 13.506C215.792 13.4193 215.723 13.2807 215.706 13.09C215.602 12.2233 215.134 11.5127 214.302 10.958C213.487 10.386 212.456 10.1 211.208 10.1C209.873 10.1 208.807 10.36 208.01 10.88C207.23 11.4 206.84 12.18 206.84 13.22C206.84 13.896 207.013 14.4593 207.36 14.91C207.724 15.3433 208.261 15.7247 208.972 16.054C209.682 16.366 210.731 16.7473 212.118 17.198C213.539 17.6487 214.648 18.082 215.446 18.498C216.243 18.914 216.841 19.4167 217.24 20.006C217.656 20.5953 217.864 21.358 217.864 22.294C217.864 23.854 217.283 25.076 216.122 25.96C214.96 26.8267 213.366 27.26 211.338 27.26Z" fill="#B1B1B1"/>
</svg>
