<svg width="50" height="50" viewBox="0 0 50 50" fill="none" xmlns="http://www.w3.org/2000/svg">
<rect width="50" height="50" fill="#202020"/>
<circle cx="25" cy="25" r="21.5" stroke="white" stroke-width="3"/>
<path fill-rule="evenodd" clip-rule="evenodd" d="M33.7356 28.8549C33.1473 28.5664 30.5002 27.2682 30.059 27.124C29.6179 26.9797 29.1767 26.8355 28.8826 27.4125C28.5884 27.9894 27.4119 29.1434 27.1178 29.4319C26.8237 29.7204 26.5296 29.8647 25.9413 29.5762C25.3531 29.2877 23.5884 28.7107 21.5295 26.9797C19.9119 25.5372 18.8824 23.8063 18.5883 23.3735C18.2942 22.7965 18.5883 22.508 18.8824 22.3638C19.1766 22.0753 19.4707 21.7868 19.7648 21.4983C19.7648 21.354 19.9119 21.354 19.9119 21.2098C20.0589 21.0655 20.0589 20.777 20.206 20.6328C20.353 20.3443 20.353 19.9116 20.206 19.7673C20.0589 19.6231 19.0295 16.8823 18.5883 15.8726C18.1471 14.8629 17.7059 15.0071 17.4118 15.0071C17.1177 15.0071 16.6765 15.0071 16.3824 15.0071C16.0883 15.0071 15.5 15.1514 14.9118 15.7284C14.4706 16.3054 13 17.6036 13 20.2001C13 20.777 13.1471 21.354 13.2941 21.931C13.8824 23.8063 15.0589 25.2487 15.2059 25.5372C15.5 25.8257 18.8824 31.4514 24.4707 33.4709C30.059 35.6346 30.059 34.9134 30.9414 34.7691C31.9708 34.6249 34.1767 33.4709 34.6179 32.3169C35.0591 31.0187 35.0591 30.0089 34.912 29.8647C34.6179 29.2877 34.3238 29.1434 33.7356 28.8549Z" fill="white"/>
</svg>
